<svg width="32" height="26" viewBox="0 0 32 26" fill="none" xmlns="http://www.w3.org/2000/svg">
<g clip-path="url(#clip0_993_975)">
<path d="M19.9277 5.74951H27.9263V8.04639H19.9277V5.74951Z" fill="#00A0C1"/>
<path d="M19.9277 11.4917H27.9263V13.7886H19.9277V11.4917Z" fill="#00A0C1"/>
<path d="M19.9277 17.2339H27.9263V19.5308H19.9277V17.2339Z" fill="#00A0C1"/>
<path d="M30.2109 0.00732422H2.78726C2.18134 0.00793229 1.60042 0.25012 1.17197 0.680736C0.743525 1.11135 0.502558 1.69522 0.501953 2.3042V22.9761C0.502558 23.5851 0.743525 24.169 1.17197 24.5996C1.60042 25.0302 2.18134 25.2724 2.78726 25.273H30.2109C30.8168 25.2721 31.3975 25.0298 31.8259 24.5992C32.2543 24.1687 32.4953 23.585 32.4962 22.9761V2.3042C32.4956 1.69522 32.2547 1.11135 31.8262 0.680736C31.3978 0.25012 30.8169 0.00793229 30.2109 0.00732422ZM2.78726 2.3042H15.3564V22.9761H2.78726V2.3042ZM17.6418 22.9761V2.3042H30.2109L30.2132 22.9761H17.6418Z" fill="#00A0C1"/>
</g>
<defs>
<clipPath id="clip0_993_975">
<rect width="32" height="25.28" fill="white" transform="translate(0.5)"/>
</clipPath>
</defs>
</svg>

