<svg width="32" height="27" viewBox="0 0 32 27" fill="none" xmlns="http://www.w3.org/2000/svg">
<g clip-path="url(#clip0_993_937)">
<g clip-path="url(#clip1_993_937)">
<path d="M15.9029 12.7044C18.5034 12.7044 20.5259 10.5697 20.5259 7.94993C20.5259 5.33011 18.4071 3.29248 15.8066 3.29248C13.2062 3.29248 11.1836 5.42715 11.1836 7.94993C11.1836 10.5697 13.3025 12.7044 15.9029 12.7044ZM15.8066 5.23309C15.9029 5.23309 15.9029 5.23309 15.8066 5.23309C17.3476 5.23309 18.5997 6.49448 18.5997 8.04696C18.5997 9.59945 17.3476 10.7638 15.8066 10.7638C14.2656 10.7638 13.1099 9.50242 13.1099 8.04696C13.1099 6.49448 14.3619 5.23309 15.8066 5.23309Z" fill="#00A0C1"/>
<path d="M30.1585 12.122C28.3286 10.4725 25.9208 9.59924 23.4166 9.69627H22.6461C22.4535 10.4725 22.1645 11.1517 21.7793 11.7339C22.3572 11.6369 22.8387 11.6369 23.4166 11.6369C25.2466 11.5398 27.0765 12.122 28.5212 13.1894V20.1755H30.4475V12.4131L30.1585 12.122Z" fill="#00A0C1"/>
<path d="M21.2019 3.4859C21.6835 2.32154 23.0318 1.73936 24.2839 2.22451C25.4397 2.70966 26.0175 4.06808 25.536 5.32947C25.1507 6.20275 24.2839 6.78493 23.4171 6.78493C23.2245 6.78493 22.9355 6.78493 22.7429 6.6879C22.8392 7.17305 22.8392 7.6582 22.8392 8.04632V8.6285C23.0318 8.6285 23.2245 8.72553 23.4171 8.72553C25.8249 8.72553 27.7512 6.78493 27.7512 4.4562C27.7512 2.03045 25.8249 0.0898438 23.5134 0.0898438C21.9724 0.0898438 20.624 0.866085 19.8535 2.22451C20.3351 2.5156 20.8166 2.90372 21.2019 3.4859Z" fill="#00A0C1"/>
<path d="M10.2209 11.8306C9.83565 11.2484 9.54671 10.5692 9.35408 9.79296H8.58358C6.07944 9.69593 3.67162 10.5692 1.84167 12.1217L1.55273 12.4128V20.1752H3.47899V13.189C5.02 12.1217 6.75363 11.5395 8.58358 11.6365C9.16146 11.6365 9.73934 11.7336 10.2209 11.8306Z" fill="#00A0C1"/>
<path d="M8.58469 8.62915C8.77732 8.62915 8.96994 8.62915 9.16257 8.53212V7.94994C9.16257 7.46479 9.16257 6.97963 9.25888 6.59151C9.06625 6.68854 8.77732 6.68854 8.58469 6.68854C7.33262 6.68854 6.27318 5.62121 6.27318 4.35982C6.27318 3.09843 7.33262 2.03109 8.58469 2.03109C9.54782 2.03109 10.4146 2.61327 10.7999 3.48655C11.1851 3.0014 11.763 2.51624 12.2446 2.12812C10.9925 0.0904882 8.39206 -0.588723 6.36949 0.67267C4.34692 1.93406 3.67273 4.55388 4.9248 6.59151C5.6953 7.85291 7.04368 8.62915 8.58469 8.62915Z" fill="#00A0C1"/>
<path d="M23.8013 17.9435L23.6087 17.6524C21.6824 15.5177 18.9857 14.2563 16.0963 14.3534C13.2069 14.2563 10.4138 15.5177 8.48755 17.6524L8.29492 17.9435V25.3178C8.29492 26.1911 8.96911 26.9673 9.93224 26.9673H22.2603C23.1271 26.9673 23.8976 26.1911 23.8976 25.3178V17.9435H23.8013ZM21.875 25.0267H10.2212V18.6227C11.7622 17.0702 13.8811 16.294 16.0963 16.294C18.2152 16.1969 20.334 17.0702 21.875 18.6227V25.0267Z" fill="#00A0C1"/>
</g>
</g>
<defs>
<clipPath id="clip0_993_937">
<rect width="32" height="26.353" fill="white"/>
</clipPath>
<clipPath id="clip1_993_937">
<rect width="29" height="27" fill="white" transform="translate(1.5)"/>
</clipPath>
</defs>
</svg>
